<svg width="42" height="67" viewBox="0 0 42 67" fill="none" xmlns="http://www.w3.org/2000/svg">
<path id="Vector" d="M41.8169 25.7994C41.6941 25.5836 41.516 25.404 41.3008 25.2791C41.0856 25.1542 40.8409 25.0884 40.5918 25.0884H22.1449L25.2376 1.5575C25.2708 1.24257 25.1966 0.925692 25.0269 0.657872C24.8573 0.390053 24.602 0.186881 24.3023 0.0810689C24.0026 -0.0247431 23.6759 -0.0270378 23.3747 0.0745543C23.0735 0.176146 22.8154 0.375713 22.642 0.641123L0.208588 39.7788C0.0774036 39.9913 0.00550479 40.2348 0.000303705 40.4841C-0.00489738 40.7335 0.0567874 40.9797 0.178999 41.1975C0.30121 41.4152 0.479525 41.5965 0.695557 41.7227C0.911589 41.8489 1.15752 41.9155 1.40799 41.9155H19.5792L17.1283 65.4818C17.1043 65.7957 17.1863 66.1085 17.3613 66.3706C17.5364 66.6327 17.7944 66.8289 18.0944 66.9281C18.3944 67.0273 18.719 67.0238 19.0167 66.918C19.3144 66.8123 19.5681 66.6104 19.7373 66.3446L41.8 27.2111C41.928 26.9983 41.9969 26.7555 41.9999 26.5075C42.0029 26.2595 41.9397 26.0151 41.8169 25.7994Z" fill="white"/>
</svg>
