<svg width="173" height="36" viewBox="0 0 173 36" fill="none" xmlns="http://www.w3.org/2000/svg">
<path fill-rule="evenodd" clip-rule="evenodd" d="M22.1455 0H34.7863C37.5704 0 39.8274 2.25696 39.8274 5.04105C39.8274 7.83257 37.5588 10.0926 34.7673 10.0821L22.1379 10.0345L22.1379 10.029C19.4675 10.0749 16.7966 10.109 14.1257 10.1411L14.0271 10.1423C12.6243 10.1587 11.2258 10.1751 9.85148 10.5246C7.31915 11.1706 5.19615 12.4426 3.58231 14.5181C3.54243 14.5535 3.50025 14.5863 3.45605 14.6162C3.41376 14.333 3.36903 14.0555 3.32487 13.7814C3.22861 13.184 3.13508 12.6036 3.0755 12.0198C2.8905 10.2186 3.02969 8.44506 3.66923 6.73433C4.79269 3.7263 6.91863 1.79123 9.97833 0.85276C11.7711 0.293261 13.6377 0.00601501 15.5157 0.000622979H22.1455V0ZM8.83668 5.31853C7.83848 5.52297 6.92626 6.02671 6.22154 6.76264C6.40233 6.71636 6.58232 6.67069 6.76164 6.6252L6.76169 6.62518L6.7619 6.62513C7.23783 6.50438 7.70904 6.38484 8.17776 6.25817C8.56419 6.15481 8.8637 5.7261 8.83668 5.31853ZM4.46848 36H12.8482C12.8919 32.8491 14.4456 25.8646 20.3114 23.1338C26.1773 20.403 28.1675 20.7706 28.4293 21.2958V12.1056C23.061 11.9306 11.0413 14.6526 5.90875 26.9411C4.46848 29.9607 4.46848 33.2692 4.46848 36Z" fill="#0080FF"/>
<path d="M49.782 27.5C49.65 27.5 49.542 27.458 49.458 27.374C49.374 27.29 49.332 27.182 49.332 27.05V15.35C49.332 15.218 49.374 15.11 49.458 15.026C49.542 14.942 49.65 14.9 49.782 14.9H57.81C57.942 14.9 58.05 14.942 58.134 15.026C58.218 15.11 58.26 15.218 58.26 15.35V16.88C58.26 17.012 58.218 17.12 58.134 17.204C58.05 17.288 57.942 17.33 57.81 17.33H52.14V20.372H57.45C57.582 20.372 57.69 20.414 57.774 20.498C57.858 20.582 57.9 20.69 57.9 20.822V22.352C57.9 22.472 57.858 22.574 57.774 22.658C57.69 22.742 57.582 22.784 57.45 22.784H52.14V27.05C52.14 27.182 52.098 27.29 52.014 27.374C51.93 27.458 51.822 27.5 51.69 27.5H49.782ZM58.842 27.5C58.734 27.5 58.644 27.464 58.572 27.392C58.5 27.308 58.464 27.218 58.464 27.122C58.464 27.062 58.47 27.008 58.482 26.96L62.766 15.386C62.802 15.254 62.874 15.14 62.982 15.044C63.09 14.948 63.24 14.9 63.432 14.9H65.736C65.928 14.9 66.078 14.948 66.186 15.044C66.294 15.14 66.366 15.254 66.402 15.386L70.686 26.96C70.698 27.008 70.704 27.062 70.704 27.122C70.704 27.218 70.668 27.308 70.596 27.392C70.524 27.464 70.434 27.5 70.326 27.5H68.454C68.274 27.5 68.142 27.458 68.058 27.374C67.974 27.29 67.92 27.212 67.896 27.14L67.122 25.124H62.046L61.272 27.14C61.248 27.212 61.194 27.29 61.11 27.374C61.026 27.458 60.894 27.5 60.714 27.5H58.842ZM62.712 22.802H66.438L64.584 17.618L62.712 22.802ZM72.7039 27.5C72.5719 27.5 72.4639 27.458 72.3799 27.374C72.2959 27.29 72.2539 27.182 72.2539 27.05V15.35C72.2539 15.218 72.2959 15.11 72.3799 15.026C72.4639 14.942 72.5719 14.9 72.7039 14.9H74.7019C74.8339 14.9 74.9419 14.942 75.0259 15.026C75.1099 15.11 75.1519 15.218 75.1519 15.35V25.088H80.7319C80.8639 25.088 80.9719 25.13 81.0559 25.214C81.1399 25.298 81.1819 25.406 81.1819 25.538V27.05C81.1819 27.182 81.1399 27.29 81.0559 27.374C80.9719 27.458 80.8639 27.5 80.7319 27.5H72.7039ZM87.6817 27.68C86.5537 27.68 85.5937 27.494 84.8017 27.122C84.0217 26.738 83.4157 26.186 82.9837 25.466C82.5517 24.734 82.3117 23.846 82.2637 22.802C82.2517 22.31 82.2457 21.782 82.2457 21.218C82.2457 20.654 82.2517 20.114 82.2637 19.598C82.3117 18.566 82.5517 17.69 82.9837 16.97C83.4277 16.238 84.0457 15.68 84.8377 15.296C85.6297 14.912 86.5777 14.72 87.6817 14.72C88.4857 14.72 89.2177 14.822 89.8777 15.026C90.5377 15.23 91.1077 15.524 91.5877 15.908C92.0677 16.292 92.4397 16.742 92.7037 17.258C92.9677 17.774 93.1117 18.35 93.1357 18.986C93.1357 19.094 93.0937 19.184 93.0097 19.256C92.9377 19.328 92.8477 19.364 92.7397 19.364H90.6877C90.5437 19.364 90.4297 19.328 90.3457 19.256C90.2617 19.184 90.1957 19.064 90.1477 18.896C89.9677 18.188 89.6677 17.702 89.2477 17.438C88.8277 17.174 88.3057 17.042 87.6817 17.042C86.9377 17.042 86.3497 17.246 85.9177 17.654C85.4857 18.062 85.2517 18.74 85.2157 19.688C85.1797 20.672 85.1797 21.68 85.2157 22.712C85.2517 23.66 85.4857 24.338 85.9177 24.746C86.3497 25.154 86.9377 25.358 87.6817 25.358C88.3057 25.358 88.8277 25.226 89.2477 24.962C89.6797 24.686 89.9797 24.2 90.1477 23.504C90.1957 23.324 90.2617 23.204 90.3457 23.144C90.4297 23.072 90.5437 23.036 90.6877 23.036H92.7397C92.8477 23.036 92.9377 23.072 93.0097 23.144C93.0937 23.216 93.1357 23.306 93.1357 23.414C93.1117 24.05 92.9677 24.626 92.7037 25.142C92.4397 25.658 92.0677 26.108 91.5877 26.492C91.1077 26.876 90.5377 27.17 89.8777 27.374C89.2177 27.578 88.4857 27.68 87.6817 27.68ZM100.162 27.68C99.0702 27.68 98.1282 27.5 97.3362 27.14C96.5442 26.78 95.9262 26.24 95.4822 25.52C95.0382 24.788 94.7982 23.87 94.7622 22.766C94.7502 22.25 94.7442 21.74 94.7442 21.236C94.7442 20.72 94.7502 20.198 94.7622 19.67C94.7982 18.59 95.0382 17.684 95.4822 16.952C95.9382 16.208 96.5622 15.65 97.3542 15.278C98.1582 14.906 99.0942 14.72 100.162 14.72C101.218 14.72 102.142 14.906 102.934 15.278C103.738 15.65 104.368 16.208 104.824 16.952C105.28 17.684 105.52 18.59 105.544 19.67C105.568 20.198 105.58 20.72 105.58 21.236C105.58 21.74 105.568 22.25 105.544 22.766C105.508 23.87 105.268 24.788 104.824 25.52C104.38 26.24 103.762 26.78 102.97 27.14C102.178 27.5 101.242 27.68 100.162 27.68ZM100.162 25.358C100.858 25.358 101.428 25.148 101.872 24.728C102.328 24.296 102.568 23.612 102.592 22.676C102.616 22.148 102.628 21.656 102.628 21.2C102.628 20.732 102.616 20.24 102.592 19.724C102.58 19.1 102.466 18.59 102.25 18.194C102.034 17.798 101.746 17.51 101.386 17.33C101.038 17.138 100.63 17.042 100.162 17.042C99.6942 17.042 99.2802 17.138 98.9202 17.33C98.5602 17.51 98.2722 17.798 98.0562 18.194C97.8522 18.59 97.7382 19.1 97.7142 19.724C97.7022 20.24 97.6962 20.732 97.6962 21.2C97.6962 21.656 97.7022 22.148 97.7142 22.676C97.7502 23.612 97.9902 24.296 98.4342 24.728C98.8782 25.148 99.4542 25.358 100.162 25.358ZM108.264 27.5C108.132 27.5 108.024 27.458 107.94 27.374C107.856 27.29 107.814 27.182 107.814 27.05V15.35C107.814 15.218 107.856 15.11 107.94 15.026C108.024 14.942 108.132 14.9 108.264 14.9H109.902C110.082 14.9 110.214 14.942 110.298 15.026C110.382 15.11 110.436 15.176 110.46 15.224L115.266 22.73V15.35C115.266 15.218 115.308 15.11 115.392 15.026C115.476 14.942 115.578 14.9 115.698 14.9H117.534C117.666 14.9 117.774 14.942 117.858 15.026C117.942 15.11 117.984 15.218 117.984 15.35V27.05C117.984 27.17 117.942 27.278 117.858 27.374C117.774 27.458 117.666 27.5 117.534 27.5H115.878C115.698 27.5 115.566 27.458 115.482 27.374C115.41 27.278 115.356 27.212 115.32 27.176L110.532 19.904V27.05C110.532 27.182 110.49 27.29 110.406 27.374C110.322 27.458 110.214 27.5 110.082 27.5H108.264ZM125.069 27.5C124.937 27.5 124.829 27.458 124.745 27.374C124.661 27.29 124.619 27.182 124.619 27.05V15.35C124.619 15.218 124.661 15.11 124.745 15.026C124.829 14.942 124.937 14.9 125.069 14.9H133.097C133.229 14.9 133.337 14.942 133.421 15.026C133.505 15.11 133.547 15.218 133.547 15.35V16.88C133.547 17.012 133.505 17.12 133.421 17.204C133.337 17.288 133.229 17.33 133.097 17.33H127.427V20.372H132.737C132.869 20.372 132.977 20.414 133.061 20.498C133.145 20.582 133.187 20.69 133.187 20.822V22.352C133.187 22.472 133.145 22.574 133.061 22.658C132.977 22.742 132.869 22.784 132.737 22.784H127.427V27.05C127.427 27.182 127.385 27.29 127.301 27.374C127.217 27.458 127.109 27.5 126.977 27.5H125.069ZM136.038 27.5C135.906 27.5 135.798 27.458 135.714 27.374C135.63 27.29 135.588 27.182 135.588 27.05V15.35C135.588 15.218 135.63 15.11 135.714 15.026C135.798 14.942 135.906 14.9 136.038 14.9H138.036C138.168 14.9 138.276 14.942 138.36 15.026C138.444 15.11 138.486 15.218 138.486 15.35V25.088H144.066C144.198 25.088 144.306 25.13 144.39 25.214C144.474 25.298 144.516 25.406 144.516 25.538V27.05C144.516 27.182 144.474 27.29 144.39 27.374C144.306 27.458 144.198 27.5 144.066 27.5H136.038ZM151.016 27.68C149.924 27.68 148.982 27.5 148.19 27.14C147.398 26.78 146.78 26.24 146.336 25.52C145.892 24.788 145.652 23.87 145.616 22.766C145.604 22.25 145.598 21.74 145.598 21.236C145.598 20.72 145.604 20.198 145.616 19.67C145.652 18.59 145.892 17.684 146.336 16.952C146.792 16.208 147.416 15.65 148.208 15.278C149.012 14.906 149.948 14.72 151.016 14.72C152.072 14.72 152.996 14.906 153.788 15.278C154.592 15.65 155.222 16.208 155.678 16.952C156.134 17.684 156.374 18.59 156.398 19.67C156.422 20.198 156.434 20.72 156.434 21.236C156.434 21.74 156.422 22.25 156.398 22.766C156.362 23.87 156.122 24.788 155.678 25.52C155.234 26.24 154.616 26.78 153.824 27.14C153.032 27.5 152.096 27.68 151.016 27.68ZM151.016 25.358C151.712 25.358 152.282 25.148 152.726 24.728C153.182 24.296 153.422 23.612 153.446 22.676C153.47 22.148 153.482 21.656 153.482 21.2C153.482 20.732 153.47 20.24 153.446 19.724C153.434 19.1 153.32 18.59 153.104 18.194C152.888 17.798 152.6 17.51 152.24 17.33C151.892 17.138 151.484 17.042 151.016 17.042C150.548 17.042 150.134 17.138 149.774 17.33C149.414 17.51 149.126 17.798 148.91 18.194C148.706 18.59 148.592 19.1 148.568 19.724C148.556 20.24 148.55 20.732 148.55 21.2C148.55 21.656 148.556 22.148 148.568 22.676C148.604 23.612 148.844 24.296 149.288 24.728C149.732 25.148 150.308 25.358 151.016 25.358ZM160.579 27.5C160.387 27.5 160.231 27.446 160.111 27.338C160.003 27.23 159.937 27.098 159.913 26.942L157.861 15.404C157.849 15.38 157.843 15.356 157.843 15.332C157.843 15.308 157.843 15.29 157.843 15.278C157.843 15.182 157.879 15.098 157.951 15.026C158.023 14.942 158.113 14.9 158.221 14.9H160.111C160.423 14.9 160.597 15.026 160.633 15.278L161.983 22.892L163.441 18.158C163.477 18.062 163.537 17.96 163.621 17.852C163.705 17.744 163.843 17.69 164.035 17.69H165.169C165.361 17.69 165.499 17.744 165.583 17.852C165.667 17.96 165.721 18.062 165.745 18.158L167.221 22.874L168.553 15.278C168.589 15.026 168.769 14.9 169.093 14.9H170.983C171.091 14.9 171.181 14.942 171.253 15.026C171.325 15.098 171.361 15.182 171.361 15.278C171.361 15.29 171.361 15.308 171.361 15.332C171.361 15.356 171.355 15.38 171.343 15.404L169.291 26.942C169.267 27.098 169.195 27.23 169.075 27.338C168.967 27.446 168.817 27.5 168.625 27.5H167.167C166.975 27.5 166.825 27.452 166.717 27.356C166.621 27.248 166.555 27.14 166.519 27.032L164.593 21.452L162.685 27.032C162.649 27.14 162.577 27.248 162.469 27.356C162.373 27.452 162.223 27.5 162.019 27.5H160.579Z" fill="white"/>
</svg>
