<svg width="27" height="22" viewBox="0 0 27 22" fill="none" xmlns="http://www.w3.org/2000/svg">
<g id="Group">
<path id="Vector" fill-rule="evenodd" clip-rule="evenodd" d="M25 13H2C0.895 13 0 12.104 0 10.999C0 9.895 0.895 9 2 9H25C26.104 9 27 9.895 27 10.999C27 12.104 26.104 13 25 13ZM25 4H12.99C10.994 4 10.98 3.104 10.98 2C10.98 0.895 10.994 0 12.99 0H25C26.104 0 27 0.895 27 2C27 3.104 26.104 4 25 4ZM7.35 4C5.95 4 5.71 3.12 5.71 2.35V1.964C5.71 0.879 5.95 0 7.35 0C8.12 0 8.999 0.879 8.999 1.964V2.35C8.999 3.12 8.12 4 7.35 4ZM2.35 4C0.95 4 0.71 3.12 0.71 2.35V1.964C0.71 0.879 0.95 0 2.35 0C3.12 0 3.999 0.879 3.999 1.964V2.35C3.999 3.12 3.12 4 2.35 4ZM2 18H25C26.104 18 27 18.895 27 20C27 21.104 26.104 22 25 22H2C0.895 22 0 21.104 0 20C0 18.895 0.895 18 2 18Z" fill="white"/>
</g>
</svg>
