<svg width="36" height="36" viewBox="0 0 36 36" fill="none" xmlns="http://www.w3.org/2000/svg">
<circle opacity="0.2" cx="18" cy="18" r="18" fill="#FFCF55"/>
<path d="M24.929 27.982H11.0154C10.5143 27.982 10.1079 27.5692 10.1079 27.0604V26.1388H25.8365V27.0604C25.8365 27.5692 25.4301 27.982 24.929 27.982ZM10.1079 13.8508C10.1079 13.3416 10.5143 12.9292 11.0154 12.9292H13.4349C13.4349 10.3842 15.4663 8.3212 17.9722 8.3212C20.4778 8.3212 22.5091 10.3843 22.5091 12.9292H24.929C25.4301 12.9292 25.8365 13.3417 25.8365 13.8508V25.2172H10.1079V13.8508H10.1079ZM20.6945 12.9292C20.6945 11.4021 19.4755 10.1644 17.9722 10.1644C16.4688 10.1644 15.2499 11.4021 15.2499 12.9292H20.6945Z" fill="#FFCF55"/>
</svg>
