<svg width="64" height="66" viewBox="0 0 64 66" fill="none" xmlns="http://www.w3.org/2000/svg">
<path id="power" fill-rule="evenodd" clip-rule="evenodd" d="M34.97 2.78933C34.8606 1.21567 33.5404 -0.018156 31.9428 0.000202222C30.2861 0.0192404 28.9584 1.37773 28.9775 3.03448L29.3184 32.7011L29.3255 32.8773C29.4348 34.451 30.7551 35.6848 32.3527 35.6665C34.0094 35.6474 35.337 34.2889 35.318 32.6322L34.9771 2.96553L34.97 2.78933ZM52.6052 8.38977C51.3477 7.31094 49.4537 7.45579 48.3749 8.71328C47.2961 9.97078 47.4409 11.8647 48.6984 12.9436C54.5263 17.9434 57.9545 25.2819 57.9545 33.1994C57.9545 47.828 46.3128 59.6667 31.9773 59.6667C17.6418 59.6667 6 47.828 6 33.1994C6 25.2825 9.42776 17.9444 15.255 12.9446C16.5124 11.8657 16.6572 9.97168 15.5783 8.71424C14.4994 7.45681 12.6054 7.31208 11.3479 8.39097C4.20234 14.522 0 23.5183 0 33.1994C0 51.1194 14.3053 65.6667 31.9773 65.6667C49.6492 65.6667 63.9545 51.1194 63.9545 33.1994C63.9545 23.5176 59.7516 14.5208 52.6052 8.38977Z" fill="white"/>
</svg>
