<svg width="48" height="48" viewBox="0 0 48 48" fill="none" xmlns="http://www.w3.org/2000/svg">
<g id="Group 39938">
<rect id="Rectangle 1" width="48" height="48" rx="12" fill="white"/>
<g id="Group 10">
<g id="Group 9">
<g id="Group 8">
<path id="Subtract" fill-rule="evenodd" clip-rule="evenodd" d="M9.15146 20.2357C9.19086 20.4802 9.23077 20.7279 9.26851 20.9805C9.30795 20.9539 9.34559 20.9246 9.38118 20.893C10.8212 19.0411 12.7156 17.906 14.9752 17.3296C16.2015 17.0178 17.4494 17.0031 18.7012 16.9884C18.7305 16.9881 18.7598 16.9878 18.7891 16.9874C21.9307 16.9497 25.0722 16.9088 28.2127 16.8449C28.7958 16.8394 29.3761 16.7657 29.942 16.6253C33.615 15.6668 35.8804 13.3197 36.7225 9.62006C36.8056 9.25519 36.8389 8.87867 36.8732 8.49133C36.8893 8.30956 36.9056 8.12541 36.9274 7.93896H20.0295C18.3537 7.94378 16.6881 8.20009 15.0884 8.69933C12.3582 9.53673 10.4612 11.2634 9.45873 13.9475C8.88806 15.474 8.76387 17.0566 8.92894 18.6638C8.98211 19.1847 9.06556 19.7026 9.15146 20.2357ZM14.0697 12.6841C13.179 12.8665 12.365 13.316 11.7361 13.9727C11.8975 13.9314 12.0582 13.8906 12.2183 13.85C12.643 13.7423 13.0634 13.6356 13.4817 13.5226C13.8265 13.4303 14.0938 13.0478 14.0697 12.6841Z" fill="#0966D4"/>
<path id="Vector 5" d="M17.6492 40.0616H10.1719C10.1719 37.6249 10.1719 34.6727 11.457 31.9783C16.0369 21.0131 26.7622 18.5842 31.5523 18.7404V26.9409C31.3187 26.4723 29.5428 26.1443 24.3087 28.581C19.0746 31.0177 17.6881 37.25 17.6492 40.0616Z" fill="#0966D4"/>
</g>
</g>
<path id="Rectangle 7" d="M25.9453 7.93848H34.5394C37.0284 7.93848 39.0461 9.95618 39.0461 12.4451C39.0461 14.9341 37.0284 16.9518 34.5394 16.9518H25.9453V7.93848Z" fill="#0966D4"/>
</g>
</g>
</svg>
